<svg xmlns="http://www.w3.org/2000/svg" viewBox="0 0 64 64"><defs><style>.cls-4{fill:none;stroke:#4d535b;stroke-miterlimit:10;stroke-width:2px}</style></defs><g style="isolation:isolate"><g id="white"><path fill="#fff" d="M8 21h48v32H8z"/><path fill="#dee0e2" d="M8 21v3h44v29h4V21H8z"/></g><g id="stroke"><path class="cls-4" d="M25.1 30.9l-7.6 6.2 7.6 6.1m13.8-12.3l7.6 6.2-7.6 6.1m-4.5-15.3l-3.9 18.3"/><path class="cls-4" d="M55.5 11.3h-47v41.4h47V11.3zm0 9.4h-47"/><path class="cls-4" d="M49.6 15.4a.9.9 0 00-1 1 1 1 0 001 1 1.1 1.1 0 001-1 1 1 0 00-1-1zm-6.7 0a.9.9 0 00-1 1 1 1 0 001 1 1.1 1.1 0 001-1 1 1 0 00-1-1z"/></g><path style="mix-blend-mode:darken" fill="#a1f4c0" d="M8 11h48v10H8z" id="flah"/></g></svg>