<svg width="64" height="64" viewBox="0 0 64 64" fill="none" xmlns="http://www.w3.org/2000/svg"><path d="M58.703 18.723h-14l-7-9h-17l-7 9h-7c-1.7 0-3 1.3-3 3v27c0 1.7 1.3 3 3 3h52c1.7 0 3-1.3 3-3v-27c0-1.7-1.3-3-3-3z" fill="#fff" stroke="#404145" stroke-width="2" stroke-miterlimit="10"/><path d="M50.703 15.723v-2h7v2" stroke="#404145" stroke-width="2" stroke-miterlimit="10"/><path d="M29.703 46.723c7.732 0 14-6.268 14-14s-6.268-14-14-14-14 6.268-14 14 6.268 14 14 14z" fill="#D0F7E6" stroke="#404145" stroke-width="2" stroke-miterlimit="10"/><path d="M29.703 42.723c5.523 0 10-4.477 10-10s-4.477-10-10-10-10 4.477-10 10 4.477 10 10 10z" fill="#fff" stroke="#404145" stroke-width="2" stroke-miterlimit="10"/><path d="M24.103 30.723c.8-2.3 3-4 5.7-4m-5.3 9c-.5-.9-.8-1.9-.8-3m-16-9h6" stroke="#404145" stroke-width="2" stroke-miterlimit="10"/><path d="M58.703 51.723h-9v-33h9c1.7 0 3 1.3 3 3v27c0 1.6-1.3 3-3 3z" fill="#D0F7E6" stroke="#404145" stroke-width="2" stroke-miterlimit="10"/><path d="M42.703 44.723h2" stroke="#404145" stroke-width="2" stroke-miterlimit="10"/></svg>