<svg xmlns="http://www.w3.org/2000/svg" viewBox="0 0 64 64"><defs><style>.cls-4{fill:none;stroke:#4d535b;stroke-miterlimit:10;stroke-width:2px}</style></defs><g style="isolation:isolate"><g id="white"><path d="M29 9.2a8.6 8.6 0 018.5 8.6v13.9a8.5 8.5 0 01-8.5 8.5 8.5 8.5 0 01-8.5-8.5V17.8A8.6 8.6 0 0129 9.2z" fill="#fff"/><path d="M28.5 10.2a8.5 8.5 0 00-6.9 3.6 8.4 8.4 0 014.9-1.6c4.7 0 7.5 3.9 7.5 8.6v13.9a8 8 0 01-1.6 4.9c2.2-1.5 4.6-4 4.6-6.9V18.8a8.6 8.6 0 00-8.5-8.6z" fill="#dee0e2"/></g><g id="stroke"><path class="cls-4" d="M42.3 29.3v3.2A13.4 13.4 0 0129 45.8a13.4 13.4 0 01-13.3-13.3v-3.2M29 45.8v10.5m-10.9.5h21.8"/><path class="cls-4" d="M29 9.2a8.6 8.6 0 018.5 8.6v13.9a8.5 8.5 0 01-8.5 8.5 8.5 8.5 0 01-8.5-8.5V17.8A8.6 8.6 0 0129 9.2zm-8.1 8.3h4.8m-4.8 4.8h4.8m-4.8 4.9h4.8M20.9 32h4.8m6.6-14.5h4.8m-4.8 4.8h4.8m-4.8 4.9h4.8M32.3 32h4.8m10.7-14.1a2.3 2.3 0 013.1 2.1 3.7 3.7 0 01-3.1 3.4c-1.7.3-3.1-.6-3.1-2.2a3.7 3.7 0 013.1-3.3z"/><path class="cls-4" d="M50.8 10.5l7.3 2.6V8.6L50.8 6v14.7"/></g><path d="M47.8 17.9a2.3 2.3 0 013.1 2.1 3.7 3.7 0 01-3.1 3.4c-1.7.3-3.1-.6-3.1-2.2a3.7 3.7 0 013.1-3.3zm2.9-7.4l7.3 2.6V8.6L50.7 6" style="mix-blend-mode:darken" fill="#a1f4c0" id="flah"/></g></svg>