<svg xmlns="http://www.w3.org/2000/svg" viewBox="0 0 64 64"><defs><style>.cls-4{fill:none;stroke:#4d535b;stroke-miterlimit:10;stroke-width:2px}</style></defs><g style="isolation:isolate"><g id="white"><path fill="#fff" d="M18 30l2 21h-1v5h28v-5h-2l2-21H18z"/><path fill="#dee0e2" d="M47 30H18l.2 3H44l-2 19h2v4h3v-5h-2l2-21z"/></g><g id="stroke"><path class="cls-4" d="M39.5 29.7L49.7 9.8l5.4 2.8-8.9 17.1"/><path class="cls-4" d="M51 29.2l5.3-10.4-8.9-4.6m-32.5 7.7l4.5 7.8m8.4 0l-6.7-11.8m-.1.9l-5.8 3.7m8.4 7.2l-4.9-9.2m17.8 9.2l.1-12.5-3.4-7.3-3.2 7.6v12.2m6.1-11.9l-6.1.3m3.3 11.6l-.2-10.8m12.5 31.9L47.3 30H18.2l1.6 20.8m-1.4 5.4h28.7v-5H18.4v5zM11.7 8.3a14.7 14.7 0 00-.2 8.9c1.5 4.1 5.1 5 7.9 1.7a2.4 2.4 0 00.7-2.4c-1.1-3.2-4.3-2.2-8.4-8.2z"/></g><path d="M15 23l5 7h8l-6-11-7 4zM11.7 8.3a14.7 14.7 0 00-.2 8.9c1.5 4.1 5.1 5 7.9 1.7a2.4 2.4 0 00.7-2.4c-1.1-3.2-4.3-2.2-8.4-8.2zM39 30l11-20 5 3-9 17h-7zm-9 0h7l-1-12-3-8-3 8v12z" style="mix-blend-mode:darken" fill="#a1f4c0" id="flah"/></g></svg>