<svg xmlns="http://www.w3.org/2000/svg" viewBox="0 0 64 64"><g style="isolation:isolate"><path fill="#fff" d="M15 17h34v30H15z"/><path fill="#dee0e2" d="M15 17v3h32v27h2V17H15z"/><path d="M8 10.9v42.2m6.5-42.2v42.2M8.2 13.5h6.1m-6.1 6.2h6.1m-6.1 6.1h6.1M8.2 32h6.1m-6.1 6.2h6.1m-6.1 6.1h6.1m-6.1 6.2h6.1m35.2-39.6v42.2M56 10.9v42.2m-6.3-39.6h6.1m-6.1 6.2h6.1m-6.1 6.1h6.1M49.7 32h6.1m-6.1 6.2h6.1m-6.1 6.1h6.1m-6.1 6.2h6.1m-40.2-3.8h33.9M15.6 17.3h33.9m-22.2 6.6a9.4 9.4 0 11-3.4 12.8 9.3 9.3 0 013.4-12.8z" fill="none" stroke="#4d535b" stroke-miterlimit="10" stroke-width="2"/><path fill="#4d535b" d="M29.3 27.9v8.8l3.9-2.2 3.8-2.2-3.8-2.2-3.9-2.2z"/><path d="M8 14h6v36H8zm42 0h6v36h-6z" style="mix-blend-mode:darken" fill="#a1f4c0"/></g></svg>