<svg xmlns="http://www.w3.org/2000/svg" viewBox="0 0 64 64"><defs><style>.cls-2{fill:#fff}</style></defs><g style="isolation:isolate"><g id="stroke"><path class="cls-2" d="M44.9 44.2a1.8 1.8 0 01-2.3 1.2h-.1a1.9 1.9 0 01-1-1h-.1l-3.8-6.2a1.2 1.2 0 00-1.6-.4 1.4 1.4 0 00-.4 1.7l3.8 6.1.6.9-.2.4a1.8 1.8 0 01-.8.7 1.4 1.4 0 01-1.4.1 1.8 1.8 0 01-1-.9h-.1l-3.8-6.3a1.2 1.2 0 10-2 1.2l3.7 6.3.3.5v.4a2.7 2.7 0 01-.8.7 1.9 1.9 0 01-2.5-.9l-3.6-6a1.2 1.2 0 00-2.1 1.1l3.5 5.8-.2.4a1.8 1.8 0 01-2.6.6 1.8 1.8 0 01-.7-.8h-.1l-6.2-10.5a1.3 1.3 0 00-1.1-.6h-4.8V22.8h12.1l-4.8 4.7a2.1 2.1 0 00-.1 3l.4.3.7.4a6 6 0 006.8 0l6.7-4.3 9.5 15.9a1.7 1.7 0 01.1 1.4z"/><path class="cls-2" d="M45.1 39l-8.5-14.1a1.1 1.1 0 00-.7-.6 1.2 1.2 0 00-1 .2l-7.8 5a4.2 4.2 0 01-4.3 0l-.5-.3 8.6-8.3a3.4 3.4 0 012.3-1h8.6a3.1 3.1 0 011.3.3l7.5 3.1V39z"/><path d="M3 18h10v24H3zm48 0h10v24H51z" style="mix-blend-mode:darken" fill="#a1f4c0"/><path d="M44.8 42.8l-9.5-15.9-6.7 4.3a6 6 0 01-6.8 0l-.7-.4-.4-.3a2.1 2.1 0 01.1-3l4.8-4.7H13.5v2h9.1l3.4.2c-.8.8-1.7-.5-5 4a28.4 28.4 0 003.1 1.8v.2c2.1 1.3 3.4-.2 4 0l5-4 9.8 17.8c.1.1.1.1.1.2l.6.4h.1c1 .3 1-.2 1.3-1.2a1.7 1.7 0 00-.2-1.4z" fill="#dee0e2"/><path d="M60.8 17.4h-9.5a1.2 1.2 0 00-1.2 1.2V21l-6.4-2.6a4.9 4.9 0 00-2.1-.4h-8.2a5.4 5.4 0 00-3.9 1.5l-1.4 1.4H13.9v-2.3a1.2 1.2 0 00-1.2-1.2H3.2A1.2 1.2 0 002 18.6v23.3a1.2 1.2 0 001.2 1.2h9.5a1.2 1.2 0 001.2-1.2V41H18l5.6 9.4a4.5 4.5 0 003.7 2.2 4.2 4.2 0 003.3-1.7l.9.4 1.4.2a4.2 4.2 0 003.5-2h.2l1.3.2a4.1 4.1 0 003.6-2h.1v-.3l1.1.2a4.1 4.1 0 004.1-4.2 3.9 3.9 0 00-.4-1.8l-.3-.5H50v.9a1.2 1.2 0 001.2 1.2h9.5a1.2 1.2 0 001.3-1.3V18.6a1.2 1.2 0 00-1.2-1.2zM11.7 41H4V19.4h7.7zm33.2 3.2a1.8 1.8 0 01-2.3 1.2h-.1a1.9 1.9 0 01-1-1h-.1l-3.8-6.2a1.2 1.2 0 00-1.6-.4 1.4 1.4 0 00-.4 1.7l3.8 6.1.6.9-.2.4a1.8 1.8 0 01-.8.7 1.4 1.4 0 01-1.4.1 1.8 1.8 0 01-1-.9h-.1l-3.8-6.3a1.2 1.2 0 10-2 1.2l3.7 6.3.3.5v.4a2.7 2.7 0 01-.8.7 1.9 1.9 0 01-2.5-.9l-3.6-6a1.2 1.2 0 00-2.1 1.1l3.5 5.8-.2.4a1.8 1.8 0 01-2.6.6 1.8 1.8 0 01-.7-.8h-.1l-6.2-10.5a1.3 1.3 0 00-1.1-.6h-4.8V22.8h12.1l-4.8 4.7a2.1 2.1 0 00-.1 3l.4.3.7.4a6 6 0 006.8 0l6.7-4.3 9.5 15.9a1.7 1.7 0 01.1 1.4zm.2-5.2l-8.5-14.1a1.1 1.1 0 00-.7-.6 1.2 1.2 0 00-1 .2l-7.8 5a4.2 4.2 0 01-4.3 0l-.5-.3 8.6-8.3a3.4 3.4 0 012.3-1h8.6a3.1 3.1 0 011.3.3l7.5 3.1V39zM60 41h-7.7V19.4H60z" fill="#4d535b"/></g></g></svg>