<svg width="59" height="41" viewBox="0 0 59 41" fill="none" xmlns="http://www.w3.org/2000/svg"><path d="M11.571 9.457V7.343H49.63v2.114H11.57zm39.115-5.286V2.057h3.171A3.171 3.171 0 0157.03 5.23v26.957h-2.643v-25.9a2.114 2.114 0 00-2.114-2.115h-1.586z" fill="#DEE0E2"/><path d="M57.543 35.543A4.456 4.456 0 0153.086 40H11.57V6.571h8.986" stroke="#4D535B" stroke-width="2" stroke-miterlimit="10" stroke-linejoin="round"/><path d="M50.857 32.2c.468-.791 1.415-1.114 2.229-1.114a4.456 4.456 0 014.457 4.457V5.457A4.456 4.456 0 0053.086 1c-.814 0-1.85.19-2.229 1.114V32.2z" stroke="#4D535B" stroke-width="2" stroke-miterlimit="10" stroke-linejoin="round"/><path d="M3.786 6.171C2.248 6.171 1 7.174 1 8.4v25.5l2.786 5.572L6.57 33.9V8.4c0-1.226-1.248-2.229-2.785-2.229z" fill="#A1F4C0" stroke="#4D535B" stroke-width="2" stroke-miterlimit="10" stroke-linejoin="round"/><path d="M1 12.857h5.571m13.086-6.286h31.2m-24.485 4.886h-8.458v9.514h8.457v-9.514zm5.285 0H45.93m-14.273 4.457H45.93m-14.273 4.458h10.929" stroke="#4D535B" stroke-width="2" stroke-miterlimit="10" stroke-linejoin="round"/><path d="M39.057 35.772h7.4v-7.4h-7.4v7.4zm-6.343-8.458h-7.4v8.458h7.4v-8.458zm6.343-2.114h-6.343v10.572h6.343V25.2zM17.914 35.772h7.4v-4.23h-7.4v4.23z" stroke="#4D535B" stroke-width="2" stroke-miterlimit="10"/></svg>