<svg xmlns="http://www.w3.org/2000/svg" viewBox="0 0 64 64"><defs><style>.cls-5{fill:none;stroke:#4d535b;stroke-miterlimit:10;stroke-width:2px}</style></defs><g style="isolation:isolate"><g id="white"><path d="M39.7 10.8H13.2a1.6 1.6 0 00-1.6 1.6v39.4a1.6 1.6 0 001.6 1.6h26.5a1.6 1.6 0 001.6-1.6V12.4a1.6 1.6 0 00-1.6-1.6z" fill="#fff"/><path d="M39.7 10.8H13.2a1.6 1.6 0 00-1.6 1.6v1.4h25.1a1.6 1.6 0 011.6 1.6v38h1.4a1.6 1.6 0 001.6-1.6V12.4a1.6 1.6 0 00-1.6-1.6z" fill="#dee0e2"/></g><g id="flah"><path d="M47 16h5v32.3a1.7 1.7 0 01-1.7 1.7 3.3 3.3 0 01-3.3-3.3V16z" style="mix-blend-mode:darken" fill="#a1f4c0"/><path class="cls-5" d="M39.7 10.8H13.2a1.6 1.6 0 00-1.6 1.6v39.4a1.6 1.6 0 001.6 1.6h26.5a1.6 1.6 0 001.6-1.6V12.4a1.6 1.6 0 00-1.6-1.6zm7.2 5.3h5.7v29.7c0 5.9-5.7 5.9-5.7 0V16.1z"/><path class="cls-5" d="M56.3 31.9l.1-11.1h-9.5m2.8 32.6v-3.2M18 19.4h8.4M18 27.3h16.9M18 32h16.9M18 36.6h16.9M18 41.3h8.4"/></g></g></svg>