<svg xmlns="http://www.w3.org/2000/svg" viewBox="0 0 64 64"><g style="isolation:isolate"><path fill="#fff" d="M11 15h42v29H11z"/><path fill="#dee0e2" d="M11 15v3h39v26h3V15H11z"/><path d="M9.7 11.3h44.6a2.5 2.5 0 012.5 2.5v30.7a2.6 2.6 0 01-2.5 2.6H9.7a2.6 2.6 0 01-2.5-2.6V13.8a2.5 2.5 0 012.5-2.5zm1.1 3.5h42.4v28.7H10.8V14.8zM29 35.7a.9.9 0 011 1 1 1 0 01-1 1 1.1 1.1 0 01-1-1 1 1 0 011-1zm6.4 0a.9.9 0 011 1 1 1 0 01-2 0 .9.9 0 011-1zM20.9 21.9h3.4l3.1 10.2h10.4m-11-3.1h12.1M26 25.9h13.6m-3.1 21.5v6.9m-9 0v-6.9m-8.4 7.3h25.8" fill="none" stroke="#4d535b" stroke-miterlimit="10" stroke-width="2"/><path style="mix-blend-mode:darken" fill="#a1f4c0" d="M27 47h10v7H27z"/></g></svg>